<?xml version="1.0" encoding="UTF-8" standalone="no"?>
<!-- Created with Inkscape (http://www.inkscape.org/) -->

<svg
   xmlns:dc="http://purl.org/dc/elements/1.1/"
   xmlns:cc="http://creativecommons.org/ns#"
   xmlns:rdf="http://www.w3.org/1999/02/22-rdf-syntax-ns#"
   xmlns:svg="http://www.w3.org/2000/svg"
   xmlns="http://www.w3.org/2000/svg"
   xmlns:sodipodi="http://sodipodi.sourceforge.net/DTD/sodipodi-0.dtd"
   xmlns:inkscape="http://www.inkscape.org/namespaces/inkscape"
   width="8.4666672mm"
   height="8.4666653mm"
   viewBox="0 0 8.4666672 8.4666653"
   version="1.1"
   id="svg1469"
   inkscape:version="0.92.5 (2060ec1f9f, 2020-04-08)"
   sodipodi:docname="brand.svg">
  <defs
     id="defs1463" />
  <sodipodi:namedview
     id="base"
     pagecolor="#ffffff"
     bordercolor="#666666"
     borderopacity="1.0"
     inkscape:pageopacity="0.0"
     inkscape:pageshadow="2"
     inkscape:zoom="2.7968937"
     inkscape:cx="124.67053"
     inkscape:cy="130.95949"
     inkscape:document-units="mm"
     inkscape:current-layer="layer1"
     showgrid="false"
     inkscape:window-width="1920"
     inkscape:window-height="1017"
     inkscape:window-x="-8"
     inkscape:window-y="-8"
     inkscape:window-maximized="1" />
  <metadata
     id="metadata1466">
    <rdf:RDF>
      <cc:Work
         rdf:about="">
        <dc:format>image/svg+xml</dc:format>
        <dc:type
           rdf:resource="http://purl.org/dc/dcmitype/StillImage" />
        <dc:title></dc:title>
      </cc:Work>
    </rdf:RDF>
  </metadata>
  <g
     inkscape:label="Layer 1"
     inkscape:groupmode="layer"
     id="layer1"
     transform="translate(-50.667858,-282.46664)">
    <path
       style="opacity:1;fill:#006cf7;fill-opacity:1;stroke:none;stroke-width:0.09736882;stroke-linecap:butt;stroke-linejoin:bevel;stroke-miterlimit:4;stroke-dasharray:none;stroke-dashoffset:0;stroke-opacity:1;paint-order:markers stroke fill"
       d="m 54.886979,282.48289 a 0.62257085,0.62257085 0 0 0 -0.296564,0.0833 0.62257085,0.62257085 0 0 0 -0.227393,0.22817 l -5.03e-4,-2.7e-4 -0.179714,0.3113 0.179456,0.31079 a 0.62257085,0.62257085 0 0 0 2.62e-4,5.3e-4 l 2.214207,3.83518 h 1.43784 l -2.573718,-4.45777 a 0.62257085,0.62257085 0 0 0 -0.553876,-0.31111 z m -1.063615,1.24494 -2.573714,4.45778 5.03e-4,2.5e-4 a 0.62257085,0.62257085 0 0 0 -0.0839,0.31104 0.62257085,0.62257085 0 0 0 0.622532,0.6226 h 0.359492 l 0.179714,-0.3113 0.539207,-0.93389 1.675081,-2.9013 z m -0.237301,4.14649 -0.718922,1.24519 h 5.147367 a 0.62257085,0.62257085 0 0 0 0.622595,-0.6226 0.62257085,0.62257085 0 0 0 -0.08391,-0.31104 l 5.03e-4,-2.5e-4 -0.179715,-0.3113 h -0.359493 -1.07835 z"
       id="rect5991-9-95-0"
       inkscape:connector-curvature="0" />
  </g>
</svg>
